<svg width="20" height="20" viewBox="0 0 20 20" fill="none" xmlns="http://www.w3.org/2000/svg">
<g clip-path="url(#clip0_1_251)">
<path d="M2.55464 6.25964C3.24798 4.87901 4.31161 3.71839 5.62666 2.90753C6.94171 2.09666 8.45636 1.66748 10.0013 1.66797C12.2471 1.66797 14.1338 2.49297 15.5763 3.8388L13.1871 6.2288C12.323 5.40297 11.2246 4.98214 10.0013 4.98214C7.83047 4.98214 5.99297 6.4488 5.3388 8.41797C5.17214 8.91797 5.07714 9.4513 5.07714 10.0013C5.07714 10.5513 5.17214 11.0846 5.3388 11.5846C5.9938 13.5546 7.83047 15.0205 10.0013 15.0205C11.1221 15.0205 12.0763 14.7246 12.823 14.2246C13.2558 13.9396 13.6264 13.5698 13.9123 13.1375C14.1982 12.7053 14.3935 12.2195 14.4863 11.7096H10.0013V8.4863H17.8496C17.948 9.0313 18.0013 9.59964 18.0013 10.1905C18.0013 12.7288 17.093 14.8655 15.5163 16.3155C14.138 17.5888 12.2513 18.3346 10.0013 18.3346C8.90683 18.3351 7.823 18.1198 6.81176 17.7012C5.80051 17.2826 4.88168 16.6687 4.10777 15.8948C3.33386 15.1209 2.72005 14.2021 2.30141 13.1908C1.88278 12.1796 1.66753 11.0958 1.66797 10.0013C1.66797 8.6563 1.98964 7.38464 2.55464 6.25964Z" fill="white"/>
</g>
<defs>
<clipPath id="clip0_1_251">
<rect width="20" height="20" fill="white"/>
</clipPath>
</defs>
</svg>
