<svg width="84" height="84" viewBox="0 0 84 84" fill="none" xmlns="http://www.w3.org/2000/svg">
<g clip-path="url(#clip0_1_319)">
<path d="M82.6 72.8C81.0215 72.8049 79.5103 72.1616 78.4196 71.0206C75.0973 67.7922 69.8097 67.7922 66.4874 71.0206C65.3968 72.1609 63.8863 72.804 62.3084 72.8C62.052 72.8001 61.7958 72.7851 61.5412 72.7552C63.6249 71.257 64.7003 68.7227 64.3298 66.1832C63.9594 63.6436 62.2049 61.5221 59.78 60.6816L62.2398 57.995L70.7798 64.6268C73.2266 66.4511 76.6836 65.9802 78.5533 63.5679C80.423 61.1556 80.0168 57.6904 77.6398 55.776L65.0398 45.976C62.7347 44.2022 59.4579 44.4765 57.4798 46.6088L45.5798 59.5896L36.3972 51.3296L38.9662 48.7606C40.0175 47.7113 40.6058 46.2853 40.6 44.8V35.231C40.6634 32.1816 38.3226 29.6191 35.28 29.407C33.7481 29.3303 32.2518 29.8853 31.1405 30.9424C30.0291 31.9995 29.4 33.4662 29.4 35V41.9048C29.3999 42.2761 29.2524 42.6321 28.9898 42.8946L27.9902 43.8942C27.8819 38.9211 23.8004 34.9565 18.8263 34.9926C13.8522 35.0287 9.82871 39.0521 9.7926 44.0263C9.75649 49.0004 13.7211 53.0819 18.6942 53.1902L17.6946 54.1898C17.4312 54.4509 17.0757 54.5982 16.7048 54.6H10.031C6.9844 54.5356 4.4227 56.872 4.207 59.9116C4.12793 61.4449 4.68187 62.9434 5.73923 64.0566C6.7966 65.1699 8.26466 65.8001 9.8 65.8H19.6C19.6504 65.8 19.6994 65.786 19.7498 65.786C19.184 68.4415 20.2462 71.1799 22.4546 72.7594C22.2082 72.7871 21.9605 72.8007 21.7126 72.8C20.1329 72.8049 18.6204 72.1617 17.528 71.0206C14.201 67.7931 8.91159 67.7931 5.5846 71.0206C4.49244 72.162 2.97975 72.8052 1.4 72.8C0.626801 72.8 0 73.4268 0 74.2C0 74.9732 0.626801 75.6 1.4 75.6C3.63021 75.6046 5.77355 74.7357 7.371 73.1794C8.46642 72.0423 9.97738 71.3998 11.5563 71.3998C13.1352 71.3998 14.6462 72.0423 15.7416 73.1794C17.3395 74.7349 19.4826 75.6037 21.7126 75.6C23.5663 75.6349 25.3737 75.0197 26.8212 73.8612L26.8422 73.8458C27.1376 73.6204 27.4176 73.395 27.6822 73.1794C28.7766 72.0426 30.2867 71.4003 31.8647 71.4003C33.4427 71.4003 34.9528 72.0426 36.0472 73.1794C39.3711 76.4066 44.6583 76.4066 47.9822 73.1794C49.0762 72.0427 50.5857 71.4005 52.1633 71.4005C53.7409 71.4005 55.2504 72.0427 56.3444 73.1794C56.5824 73.3768 56.8372 73.5826 57.1046 73.7884C57.12 73.8024 57.1382 73.8136 57.155 73.8262C58.6102 75.0061 60.4353 75.6342 62.3084 75.6C64.5369 75.6045 66.6785 74.7355 68.2738 73.1794C69.3673 72.0429 70.8764 71.4007 72.4535 71.4007C74.0306 71.4007 75.5397 72.0429 76.6332 73.1794C78.2286 74.7362 80.3709 75.6053 82.6 75.6C83.3732 75.6 84 74.9732 84 74.2C84 73.4268 83.3732 72.8 82.6 72.8ZM59.535 48.5058C60.5231 47.4385 62.1619 47.3001 63.315 48.1866L75.915 57.9866C77.1374 58.9349 77.3596 60.6947 76.4113 61.9171C75.463 63.1395 73.7032 63.3617 72.4808 62.4134L62.9328 54.9934C62.3569 54.5471 61.5349 54.6171 61.0428 55.1544L56.42 60.2H48.8138L59.535 48.5058ZM18.9 50.4C15.8863 50.4193 13.2754 48.3146 12.6547 45.3655C12.034 42.4163 13.5749 39.4377 16.3407 38.2406C19.1065 37.0435 22.3328 37.9586 24.0581 40.4297C25.7834 42.9007 25.531 46.2448 23.4542 48.4288L23.2302 48.6542C22.0656 49.7722 20.5144 50.3976 18.9 50.4ZM9.8 63C9.03249 63.001 8.29823 62.6868 7.76891 62.131C7.23959 61.5752 6.96162 60.8265 7 60.06C7.15647 58.5157 8.47945 57.3546 10.031 57.4H16.7048C17.8192 57.4027 18.8884 56.9596 19.6742 56.1694L25.1132 50.729C25.2579 50.5965 25.3979 50.4565 25.5332 50.309L30.9736 44.87C31.7614 44.0846 32.2029 43.0172 32.2 41.9048V35C32.1966 34.2318 32.5113 33.4965 33.0694 32.9686C33.6275 32.4387 34.3784 32.1609 35.147 32.2C36.6882 32.3605 37.845 33.6821 37.8 35.231V44.8C37.8025 45.5446 37.5065 46.2591 36.9782 46.7838L33.3662 50.3958C33.0948 50.6673 32.9468 51.0384 32.9568 51.4222C32.9669 51.806 33.1341 52.1688 33.4194 52.4258L42.063 60.2H27.4792C27.973 59.6309 27.923 58.7719 27.3665 58.2639C26.8099 57.756 25.9499 57.7845 25.4282 58.3282L21.5726 62.1824C21.0504 62.707 20.3402 63.0013 19.6 63H9.8ZM52.1626 68.6C49.9348 68.5965 47.7943 69.466 46.2 71.022C45.1054 72.1584 43.5954 72.8005 42.0175 72.8005C40.4396 72.8005 38.9296 72.1584 37.835 71.022C34.511 67.7939 29.2226 67.7939 25.8986 71.022L25.6382 71.2348C23.7681 70.7808 22.4385 69.124 22.4 67.2C22.4015 66.0859 22.8564 65.0204 23.66 64.2488C24.5033 63.4407 25.6281 62.9928 26.796 63H57.204C59.5761 62.9499 61.5419 64.828 61.6 67.2C61.5576 69.1159 60.2391 70.7669 58.38 71.232L58.1238 71.0206C56.5295 69.4655 54.3897 68.5966 52.1626 68.6Z" fill="#F36E62"/>
<path d="M82.6 81.2C81.0215 81.2049 79.5103 80.5616 78.4196 79.4206C75.0973 76.1922 69.8097 76.1922 66.4874 79.4206C65.3939 80.5571 63.8848 81.1993 62.3077 81.1993C60.7306 81.1993 59.2215 80.5571 58.128 79.4206C54.8052 76.1921 49.5172 76.1921 46.1944 79.4206C45.0998 80.557 43.5898 81.1991 42.0119 81.1991C40.434 81.1991 38.924 80.557 37.8294 79.4206C34.5054 76.1925 29.217 76.1925 25.893 79.4206C24.7984 80.557 23.2884 81.1991 21.7105 81.1991C20.1326 81.1991 18.6226 80.557 17.528 79.4206C14.201 76.1931 8.91159 76.1931 5.5846 79.4206C4.49244 80.562 2.97975 81.2052 1.4 81.2C0.626801 81.2 0 81.8268 0 82.6C0 83.3732 0.626801 84 1.4 84C3.63021 84.0046 5.77355 83.1357 7.371 81.5794C8.46642 80.4423 9.97738 79.7998 11.5563 79.7998C13.1352 79.7998 14.6462 80.4423 15.7416 81.5794C19.0664 84.807 24.3546 84.807 27.6794 81.5794C28.7738 80.4426 30.2839 79.8003 31.8619 79.8003C33.4399 79.8003 34.95 80.4426 36.0444 81.5794C39.3683 84.8066 44.6555 84.8066 47.9794 81.5794C49.0734 80.4428 50.5829 79.8005 52.1605 79.8005C53.7381 79.8005 55.2476 80.4428 56.3416 81.5794C59.6639 84.8077 64.9515 84.8077 68.2738 81.5794C69.3673 80.4429 70.8764 79.8007 72.4535 79.8007C74.0306 79.8007 75.5397 80.4429 76.6332 81.5794C78.2286 83.1362 80.3709 84.0053 82.6 84C83.3732 84 84 83.3732 84 82.6C84 81.8268 83.3732 81.2 82.6 81.2Z" fill="#F36E62"/>
<path d="M74.8537 14.4508C73.0647 10.1312 68.4734 7.67692 63.8878 8.58895C59.3022 9.50098 55.9995 13.5253 55.9995 18.2007C55.9995 22.8761 59.3022 26.9004 63.8878 27.8124C68.4734 28.7245 73.0647 26.2702 74.8537 21.9506C75.8552 19.551 75.8552 16.8504 74.8537 14.4508ZM72.2665 20.8796C70.9882 23.9646 67.7088 25.7171 64.4336 25.0654C61.1585 24.4137 58.7997 21.5393 58.7997 18.2C58.7997 14.8606 61.1585 11.9863 64.4336 11.3346C67.7088 10.6829 70.9882 12.4354 72.2665 15.5204C72.9836 17.2348 72.9836 19.1652 72.2665 20.8796Z" fill="#F36E62"/>
<path d="M58.835 1.386C58.4908 1.5281 58.2174 1.80147 58.0752 2.14565C57.9331 2.48982 57.9339 2.87644 58.0776 3.22L59.1486 5.8072C59.4459 6.52279 60.267 6.86189 60.9826 6.5646C61.6981 6.2673 62.0372 5.44619 61.74 4.7306L60.669 2.1434C60.5268 1.79921 60.2535 1.52582 59.9093 1.38368C59.5651 1.24155 59.1785 1.24238 58.835 1.386Z" fill="#F36E62"/>
<path d="M70.6214 29.841C69.9076 30.137 69.5686 30.9553 69.864 31.6694L70.935 34.2566C71.2308 34.971 72.0497 35.3104 72.7641 35.0147C73.4786 34.7189 73.818 33.9 73.5222 33.1856L72.4512 30.5984C72.3091 30.2552 72.0364 29.9826 71.6932 29.8406C71.3501 29.6985 70.9645 29.6987 70.6214 29.841Z" fill="#F36E62"/>
<path d="M78.7342 14.2436C78.9183 14.2433 79.1005 14.2066 79.2704 14.1358L81.8576 13.0648C82.5721 12.7671 82.9099 11.9466 82.6122 11.2322C82.3145 10.5178 81.4941 10.1799 80.7796 10.4776L78.1924 11.55C77.5751 11.8055 77.2243 12.4616 77.3547 13.1169C77.4852 13.7722 78.0605 14.244 78.7286 14.2436H78.7342Z" fill="#F36E62"/>
<path d="M52.3291 22.26L49.7419 23.331C49.0275 23.6271 48.6884 24.4464 48.9845 25.1608C49.2807 25.8752 50.0999 26.2143 50.8143 25.9182L53.4015 24.8458C53.8742 24.6615 54.2102 24.236 54.2798 23.7334C54.3494 23.2309 54.1417 22.7301 53.7369 22.4243C53.332 22.1185 52.7935 22.0556 52.3291 22.26Z" fill="#F36E62"/>
<path d="M78.1982 24.85L80.7854 25.9224C81.4998 26.2185 82.319 25.8794 82.6152 25.165C82.9113 24.4506 82.5722 23.6313 81.8578 23.3352L79.2706 22.26C78.8062 22.0556 78.2677 22.1185 77.8628 22.4243C77.458 22.7301 77.2503 23.2309 77.3199 23.7334C77.3895 24.236 77.7255 24.6615 78.1982 24.8458V24.85Z" fill="#F36E62"/>
<path d="M53.4013 11.55L50.8197 10.4776C50.1053 10.1815 49.286 10.5206 48.9899 11.235C48.6938 11.9494 49.0329 12.7687 49.7473 13.0648L52.3345 14.1358C52.7989 14.3401 53.3374 14.2773 53.7422 13.9715C54.147 13.6657 54.3548 13.1649 54.2852 12.6623C54.2156 12.1598 53.8796 11.7343 53.4069 11.55H53.4013Z" fill="#F36E62"/>
<path d="M71.1575 6.6668C71.724 6.66671 72.2347 6.32517 72.4511 5.8016L73.5221 3.22C73.8178 2.50556 73.4784 1.68665 72.764 1.3909C72.0495 1.09515 71.2306 1.43456 70.9349 2.149L69.8597 4.7306C69.6806 5.16266 69.729 5.65563 69.9888 6.04454C70.2487 6.43345 70.6856 6.66691 71.1533 6.6668H71.1575Z" fill="#F36E62"/>
<path d="M59.1482 30.5984L58.0772 33.18C57.8859 33.6422 57.9556 34.1713 58.2602 34.568C58.5648 34.9648 59.0579 35.1689 59.5538 35.1035C60.0497 35.0381 60.4731 34.7132 60.6644 34.251L61.7354 31.6638C62.0311 30.9494 61.6917 30.1304 60.9773 29.8347C60.2628 29.539 59.4439 29.8784 59.1482 30.5928V30.5984Z" fill="#F36E62"/>
<path d="M7.79778 22.4H13.7198C14.9184 24.1528 16.9052 25.2007 19.0286 25.2H35.3736C38.5022 25.2165 41.183 22.966 41.7088 19.8818C42.2345 16.7976 40.4506 13.7861 37.4932 12.7652C37.1563 9.48732 34.3931 6.99637 31.098 6.99999C31.0504 6.99999 31.0042 7.01119 30.958 7.01119C30.1688 4.48929 28.295 2.45135 25.8481 1.45363C23.4012 0.455906 20.6366 0.602571 18.309 1.85359C16.0673 -0.0497399 12.9467 -0.533187 10.2342 0.602608C7.52162 1.7384 5.67654 4.30105 5.45978 7.23379C1.78556 8.36902 -0.501991 12.0251 0.0839193 15.8258C0.66983 19.6265 3.95226 22.424 7.79778 22.4ZM34.7198 13.3966C34.7203 13.5055 34.7151 13.6144 34.7044 13.7228C34.6316 14.4673 35.1569 15.1374 35.8972 15.2446C37.7717 15.5078 39.1211 17.1794 38.9829 19.0672C38.8448 20.9551 37.2664 22.4125 35.3736 22.4H19.0272C17.1677 22.4209 15.5994 21.0198 15.4114 19.1698C15.2234 17.3197 16.4777 15.6318 18.3034 15.2782C18.8738 15.1631 19.3136 14.7072 19.408 14.133C19.6716 12.6112 20.7023 11.3333 22.1338 10.7536C23.5653 10.1739 25.1948 10.3744 26.443 11.284C27.0349 11.7158 27.8597 11.6181 28.3344 11.06C29.3247 9.92204 30.9144 9.51288 32.331 10.0313C33.7477 10.5497 34.6978 11.8882 34.7198 13.3966ZM7.07538 9.72999C7.44332 9.67668 7.77494 9.47922 7.99713 9.18113C8.21931 8.88305 8.31381 8.50882 8.25978 8.14099C8.246 8.01315 8.24133 7.88449 8.24578 7.75599C8.26043 5.00855 10.4963 2.79146 13.2438 2.79999C14.7083 2.80094 16.1005 3.43676 17.0602 4.54299C17.5358 5.093 18.3534 5.18729 18.9418 4.75999C19.9851 4.00712 21.2391 3.60202 22.5258 3.60219C25.1089 3.60324 27.407 5.24253 28.249 7.68459C27.8351 7.88023 27.4436 8.12009 27.0814 8.39999C25.1641 7.43749 22.9198 7.36966 20.9479 8.21462C18.976 9.05958 17.4771 10.7313 16.8516 12.7834C14.3095 13.6965 12.6103 16.1024 12.5998 18.8034C12.6097 19.0704 12.6368 19.3365 12.681 19.6H7.79778C5.18498 19.62 3.00492 17.6092 2.81419 15.0033C2.62346 12.3974 4.48751 10.0906 7.07538 9.72999Z" fill="#F36E62"/>
</g>
<defs>
<clipPath id="clip0_1_319">
<rect width="84" height="84" fill="white"/>
</clipPath>
</defs>
</svg>
