<svg width="84" height="84" viewBox="0 0 84 84" fill="none" xmlns="http://www.w3.org/2000/svg">
<g clip-path="url(#clip0_1_274)">
<path d="M79.8 28H78.316C77.4494 15.5288 65.1742 5.6 50.1662 5.6H48.7424C48.9082 5.15164 48.9954 4.67802 49 4.2C49 3.08609 48.5575 2.0178 47.7699 1.23015C46.9822 0.442499 45.9139 0 44.8 0C43.6861 0 42.6178 0.442499 41.8302 1.23015C41.0425 2.0178 40.6 3.08609 40.6 4.2C40.6046 4.67802 40.6918 5.15164 40.8576 5.6H39.4338C24.4258 5.6 12.1506 15.5288 11.284 28H9.8C8.68609 28 7.61781 28.4425 6.83015 29.2302C6.0425 30.0178 5.6 31.0861 5.6 32.2C5.6 33.3139 6.0425 34.3822 6.83015 35.1698C7.61781 35.9575 8.68609 36.4 9.8 36.4H25.34C25.2557 36.7057 25.211 37.0209 25.207 37.338V42C25.4272 45.8781 24.4344 49.7285 22.3664 53.0166C21.9954 53.725 21.5922 54.4992 21.1554 55.3728C20.1107 57.4361 19.3119 59.615 18.7754 61.8646C17.9938 61.4461 17.1006 61.2832 16.2216 61.399C15.3426 61.5148 14.522 61.9034 13.8754 62.51C7.7742 68.3312 4.1734 70.336 2.569 71.015C1.80736 71.333 1.15692 71.8694 0.699728 72.5565C0.242535 73.2437 -0.000941967 74.0508 2.73873e-06 74.8762V79.8C2.73873e-06 80.9139 0.442501 81.9822 1.23015 82.7698C2.01781 83.5575 3.08609 84 4.2 84H24.22C25.1736 84.0001 26.0988 83.6757 26.8436 83.0802L30.632 80.0478C31.0682 79.7023 31.4307 79.2727 31.6979 78.7845C31.965 78.2963 32.1315 77.7595 32.1874 77.2058C32.2432 76.6521 32.1874 76.0929 32.0232 75.5612C31.8589 75.0294 31.5896 74.5361 31.2312 74.1104C34.2537 70.8635 37.7991 68.1462 41.72 66.0716C42.5283 65.6681 43.2495 65.1097 43.8424 64.428C47.574 60.095 51.774 56.1885 56.3654 52.78C57.8195 51.7289 58.8087 50.1543 59.1248 48.3882C60.5346 40.9682 63.8918 37.359 64.9236 36.3958H79.8C80.9139 36.3958 81.9822 35.9533 82.7699 35.1656C83.5575 34.378 84 33.3097 84 32.1958C84 31.0819 83.5575 30.0136 82.7699 29.226C81.9822 28.4383 80.9139 27.9958 79.8 27.9958V28ZM43.4 4.2C43.4 3.92311 43.4821 3.65243 43.6359 3.4222C43.7898 3.19197 44.0084 3.01253 44.2642 2.90657C44.5201 2.80061 44.8016 2.77288 45.0731 2.8269C45.3447 2.88092 45.5942 3.01426 45.79 3.21005C45.9858 3.40584 46.1191 3.6553 46.1731 3.92687C46.2271 4.19845 46.1994 4.47994 46.0934 4.73576C45.9875 4.99157 45.808 5.21022 45.5778 5.36406C45.3476 5.51789 45.0769 5.6 44.8 5.6C44.4287 5.6 44.0726 5.4525 43.8101 5.18995C43.5475 4.9274 43.4 4.5713 43.4 4.2ZM39.4338 8.4H50.1662C63.6188 8.4 74.6354 17.08 75.5146 28H14.0854C14.9646 17.08 25.9812 8.4 39.4338 8.4ZM28.882 77.8596L25.0922 80.8934C24.8446 81.0914 24.5371 81.1995 24.22 81.2H4.2C3.8287 81.2 3.4726 81.0525 3.21005 80.7899C2.9475 80.5274 2.8 80.1713 2.8 79.8V74.8762C2.79892 74.6027 2.87876 74.335 3.02948 74.1068C3.1802 73.8787 3.39505 73.7002 3.647 73.5938C5.8212 72.6754 9.6936 70.3598 15.7948 64.5386C16.0609 64.2853 16.4144 64.1444 16.7818 64.1452C16.9636 64.1444 17.1437 64.1795 17.3118 64.2485C17.48 64.3174 17.6329 64.4189 17.7618 64.547L28.9954 75.7792C29.1344 75.9185 29.2424 76.0855 29.3125 76.2693C29.3826 76.4531 29.4131 76.6496 29.4022 76.846C29.3912 77.0425 29.339 77.2344 29.2488 77.4093C29.1587 77.5841 29.0328 77.7381 28.8792 77.861L28.882 77.8596ZM56.3752 47.8716C56.1897 48.9316 55.6 49.8783 54.7302 50.512C49.9635 54.0416 45.6029 58.089 41.7284 62.58C41.3762 62.9856 40.9482 63.3185 40.4684 63.56C36.2922 65.7663 32.5123 68.6524 29.2838 72.1L21.1974 64.0136C21.6358 61.4396 22.4663 58.948 23.66 56.6258C24.0884 55.7676 24.4846 55.0074 24.8486 54.3116C27.1266 50.6237 28.2259 46.3288 28 42V37.338C28.0004 37.0893 28.0993 36.851 28.2751 36.6751C28.451 36.4993 28.6893 36.4004 28.938 36.4C29.5849 36.4011 30.2123 36.6217 30.7174 37.0258C31.2153 37.4224 31.557 37.9822 31.682 38.6064C32.0066 40.1842 32.18 41.7893 32.2 43.4C32.1544 45.3794 31.9766 47.3536 31.668 49.3094C31.5539 50.1429 31.6195 50.9912 31.8606 51.7972C32.1017 52.6032 32.5127 53.3482 33.0658 53.9821C33.6189 54.616 34.3014 55.124 35.0673 55.4721C35.8332 55.8202 36.6647 56.0002 37.506 56C38.9354 55.9991 40.3166 55.4832 41.3966 54.5468L50.2586 46.7768C51.0936 46.0488 51.7413 45.1307 52.1472 44.1C53.8006 39.991 55.8418 37.1406 57.6492 36.4H61.18C58.7102 39.7993 57.0652 43.7268 56.3752 47.8716ZM50.3146 36.4H53.3176C51.7352 38.4241 50.4635 40.673 49.5446 43.0724C49.3029 43.6893 48.9147 44.238 48.4134 44.6712L45.381 47.3312C45.6834 46.1664 45.9592 44.9512 46.1804 43.6324C46.6611 40.809 48.1256 38.2469 50.3146 36.4ZM43.4196 43.1676C43.0169 45.8818 42.2527 48.5298 41.1474 51.0412L39.5584 52.4412C38.9263 52.9622 38.1185 53.221 37.3013 53.1645C36.4841 53.108 35.7196 52.7404 35.1652 52.1374C34.8761 51.8072 34.6617 51.4185 34.5365 50.9979C34.4114 50.5772 34.3784 50.1345 34.44 49.7C34.7685 47.615 34.9556 45.5102 35 43.4C34.9792 41.6046 34.7875 39.8153 34.4274 38.0562C34.3068 37.4731 34.0916 36.9136 33.7904 36.4H46.466C44.8893 38.3587 43.8405 40.6886 43.4196 43.1676ZM79.8 33.6H9.8C9.4287 33.6 9.0726 33.4525 8.81005 33.1899C8.5475 32.9274 8.4 32.5713 8.4 32.2C8.4 31.8287 8.5475 31.4726 8.81005 31.21C9.0726 30.9475 9.4287 30.8 9.8 30.8H79.8C80.1713 30.8 80.5274 30.9475 80.79 31.21C81.0525 31.4726 81.2 31.8287 81.2 32.2C81.2 32.5713 81.0525 32.9274 80.79 33.1899C80.5274 33.4525 80.1713 33.6 79.8 33.6Z" fill="#F36E62"/>
<path d="M39.1875 11.2C29.8971 11.2798 21.7141 15.8284 18.3415 22.7864C18.1795 23.1206 18.1568 23.5055 18.2785 23.8564C18.4002 24.2073 18.6563 24.4954 18.9904 24.6575C19.3246 24.8196 19.7095 24.8423 20.0604 24.7206C20.4113 24.5989 20.6995 24.3428 20.8615 24.0086C23.7315 18.0922 31.1067 14.0686 39.2155 14C39.5861 13.9959 39.94 13.8451 40.1995 13.5806C40.4591 13.3161 40.6031 12.9594 40.6001 12.5888C40.5928 12.2187 40.4409 11.8661 40.1769 11.6065C39.9129 11.3469 39.5578 11.201 39.1875 11.2Z" fill="#F36E62"/>
<circle cx="43.5" cy="12.5" r="1.5" fill="#F36E62"/>
</g>
<defs>
<clipPath id="clip0_1_274">
<rect width="84" height="84" fill="white"/>
</clipPath>
</defs>
</svg>
