<svg width="84" height="84" viewBox="0 0 84 84" fill="none" xmlns="http://www.w3.org/2000/svg">
<g clip-path="url(#clip0_1_282)">
<path d="M51.0645 30.0733L48.093 27.1256C47.7492 26.7843 47.2533 26.6451 46.7822 26.7577L41.6675 27.9832L33.6486 20.0146L45.0083 8.75009C45.5569 8.20606 45.5605 7.32016 45.0163 6.77159C45.0137 6.76879 45.0109 6.76617 45.0083 6.76354L39.0864 0.887852C38.6356 0.44123 37.9409 0.353969 37.3937 0.675208L22.7786 9.23413L15.5039 2.01403C13.3915 -0.0732427 9.31347 -0.865062 7.19403 1.2334L6.93661 1.48941C4.83815 3.57108 5.61179 7.6449 7.69626 9.77973L15.7404 17.7581L34.4307 36.3001L39.6754 41.4385C40.2194 41.9717 41.0899 41.9717 41.634 41.4385L51.0645 32.0878C51.3324 31.8151 51.4829 31.4486 51.4841 31.0665C51.4826 30.6928 51.3315 30.335 51.0645 30.0733ZM40.6477 38.4743L17.7115 15.7715L9.6828 7.80998C8.52305 6.62225 8.10196 4.27337 8.90637 3.47595L9.16378 3.21994C9.98358 2.40994 12.3478 2.83103 13.5272 4.00057L21.5713 11.9747C22.0218 12.4217 22.7165 12.5097 23.264 12.1888L37.8805 3.63404L42.0383 7.76101L30.6772 19.0256C30.1286 19.5696 30.125 20.4555 30.6692 21.004C30.6718 21.0068 30.6746 21.0095 30.6772 21.0121L40.256 30.5111C40.5998 30.8525 41.0957 30.9917 41.5668 30.8791L46.6815 29.6536L48.1126 31.0735L40.6477 38.4743Z" fill="#F36E62"/>
<path d="M61.1061 49.4406L49.9143 38.2488C49.3585 37.712 48.473 37.7273 47.9361 38.2831C47.4126 38.8252 47.4126 39.6847 47.9361 40.227L59.1279 51.4188C59.6742 51.9649 60.5598 51.9649 61.1061 51.4188C61.6522 50.8725 61.6522 49.9869 61.1061 49.4406Z" fill="#F36E62"/>
<path d="M54.1112 50.8396L45.7173 42.4457C45.171 41.8996 44.2855 41.8996 43.7392 42.4457C43.1931 42.992 43.1931 43.8776 43.7392 44.4239L52.133 52.8177C52.6888 53.3546 53.5743 53.3392 54.1112 52.7834C54.6349 52.2413 54.6349 51.3818 54.1112 50.8396Z" fill="#F36E62"/>
<path d="M59.7071 56.4355L58.3081 55.0365C57.7619 54.4904 56.8763 54.4904 56.33 55.0365C55.7839 55.5828 55.7839 56.4684 56.33 57.0147L57.729 58.4137C58.2847 58.9505 59.1703 58.9351 59.7071 58.3794C60.2309 57.8373 60.2309 56.9778 59.7071 56.4355Z" fill="#F36E62"/>
<path d="M78.2461 49.9652C78.2349 49.7777 78.2168 49.5917 78.2028 49.4056C78.1706 48.9705 78.1314 48.5368 78.0811 48.106C78.0573 47.8961 78.0293 47.6863 78.0013 47.4792C77.944 47.0595 77.8796 46.6468 77.8069 46.2355C77.7719 46.0369 77.7383 45.8382 77.6991 45.6396C77.6082 45.1723 77.5047 44.7107 77.3928 44.2504C77.3606 44.1175 77.334 43.9818 77.3004 43.8489C77.1605 43.2893 76.9955 42.7297 76.822 42.1701C76.745 41.9267 76.6583 41.6889 76.5772 41.4483C76.4722 41.1405 76.3659 40.8327 76.2512 40.5291C76.1365 40.2255 76.0218 39.9374 75.9014 39.6436C75.8077 39.4155 75.7126 39.1903 75.6133 38.9651C75.4734 38.6321 75.3209 38.3006 75.1642 37.9718C75.1054 37.8501 75.0425 37.7298 74.9823 37.6081C74.3428 36.3102 73.6161 35.057 72.8069 33.8574L72.7971 33.842C72.5109 33.4167 72.2129 32.997 71.9032 32.583C70.6922 30.9663 69.3315 29.4674 67.8392 28.1062L67.6755 27.9565C67.3369 27.6516 66.9923 27.3527 66.6416 27.0598C66.5633 26.9954 66.4822 26.9325 66.4038 26.8695C65.5938 26.2106 64.7572 25.5769 63.8759 24.9921C63.8479 24.9753 63.8171 24.9683 63.7891 24.9529C58.5498 21.4903 52.4071 19.6468 46.1271 19.6522C45.3545 19.6522 44.7281 20.2786 44.7281 21.0512C44.7281 21.8238 45.3545 22.4502 46.1271 22.4502C51.2012 22.45 56.1875 23.7731 60.5939 26.289L57.8785 28.3259C57.6733 28.4798 57.5142 28.6868 57.4182 28.9246L54.6203 35.9195C54.4123 36.4394 54.5346 37.0334 54.9308 37.429L61.9257 44.4239C62.188 44.6862 62.5437 44.8336 62.9148 44.8338H68.8171L69.9096 49.2028V56.0256C69.9096 56.3966 70.0572 56.7523 70.3195 57.0146L74.0968 60.7919C70.1896 72.9441 58.8919 81.1903 46.1271 81.2071C45.3786 81.2071 44.6442 81.1497 43.9083 81.0952L45.6612 78.1741L53.564 75.5399C54.0178 75.3886 54.3628 75.0161 54.479 74.5522L55.8779 68.9563C56.0659 68.2068 55.6107 67.447 54.8612 67.259C54.6029 67.1943 54.3315 67.2044 54.0789 67.2887L45.9984 69.9831L37.2576 68.7338L35.4669 65.1539L41.0516 62.9155C41.4332 62.7614 41.728 62.4481 41.8588 62.0579L43.2578 57.861C43.4005 57.4354 43.3304 56.9671 43.0689 56.6019L36.0741 46.8091C35.9756 46.6711 35.8528 46.5521 35.7117 46.458L31.5148 43.66C31.2836 43.5107 31.0136 43.4323 30.7384 43.4348H25.1425C24.5021 43.4351 23.9437 43.8702 23.7869 44.491L22.6523 48.9677L15.3776 49.0097C14.6322 49.0134 14.0206 49.6009 13.9871 50.3457C13.9661 50.8396 13.9507 51.3334 13.9507 51.8286C13.9507 52.7757 13.9996 53.7117 14.0808 54.6392C14.0808 54.7021 14.0892 54.7665 14.0948 54.8294C15.194 66.3827 22.4178 76.4537 33.0089 81.1987L33.0551 81.2197C33.8824 81.5927 34.7268 81.927 35.5886 82.2228C35.674 82.2535 35.7607 82.2815 35.846 82.3109C36.677 82.5907 37.5248 82.8425 38.3782 83.0565L38.672 83.1237C39.5491 83.3321 40.4375 83.5112 41.3398 83.6469H41.3678H41.4028C57.3098 86.0135 72.5196 76.2656 77.0136 60.824C77.0136 60.8129 77.0248 60.8031 77.029 60.7919C77.043 60.7401 77.0528 60.6883 77.0682 60.6366C77.2571 59.9735 77.4277 59.3048 77.5746 58.6249L77.5872 58.5689C77.7383 57.8629 77.8661 57.1481 77.9705 56.4243C77.9817 56.3389 77.9901 56.255 78.0027 56.1711C78.083 55.5779 78.1463 54.9797 78.193 54.3762C78.207 54.2139 78.2196 54.0516 78.2307 53.8879C78.2741 53.2066 78.3035 52.5211 78.3035 51.8286C78.3035 51.2035 78.2811 50.5823 78.2461 49.9652ZM43.532 76.2897L40.8739 80.7105C40.7578 80.6895 40.6389 80.6797 40.5242 80.6573C40.1451 80.5832 39.7743 80.488 39.405 80.3999C38.8818 80.2768 38.36 80.1495 37.848 79.9998C37.4493 79.8809 37.0575 79.748 36.6658 79.6137C36.2112 79.4584 35.7593 79.2961 35.3144 79.1184C34.8695 78.9408 34.4582 78.7645 34.0372 78.5728C33.672 78.4077 33.3125 78.2315 32.9557 78.051C32.4787 77.8104 32.0058 77.5628 31.5456 77.297C31.2966 77.1571 31.0545 77.0004 30.8097 76.8493C30.2683 76.5149 29.7297 76.1764 29.2135 75.8085C29.131 75.7497 29.0526 75.6853 28.9701 75.6266C24.9573 72.7094 21.7356 68.837 19.5969 64.3607C19.5774 64.3215 19.5578 64.2823 19.5396 64.2431C19.2206 63.5646 18.9324 62.8693 18.6638 62.1657C18.6051 62.009 18.5463 61.8509 18.4904 61.6928C18.2618 61.0689 18.0572 60.4388 17.8762 59.8028C17.7965 59.523 17.7265 59.2306 17.6552 58.9438C17.5153 58.394 17.3754 57.8428 17.276 57.2832C17.1893 56.8286 17.1292 56.3641 17.0648 55.9025C17.0032 55.4828 16.9249 55.0547 16.8899 54.6252C16.8032 53.7061 16.75 52.7757 16.75 51.8342L16.7486 51.8035L23.7519 51.7629C24.3891 51.7587 24.9429 51.3245 25.0991 50.7067L26.2309 46.2299H30.3187L33.956 48.6502L40.3913 57.6554L39.412 60.5638L33.0187 63.1198C32.3014 63.4066 31.9523 64.2208 32.2391 64.9381C32.2536 64.9743 32.2696 65.0098 32.287 65.0448L35.085 70.6406C35.2901 71.0514 35.6839 71.3352 36.1384 71.4003L45.9312 72.7993C46.1463 72.8293 46.3656 72.8098 46.572 72.7419L52.5484 70.7498L51.9538 73.128L44.2888 75.6826C43.9723 75.7882 43.7039 76.0036 43.532 76.2897ZM75.3615 54.7735C75.2593 55.7458 75.1138 56.7027 74.9208 57.6582L72.7076 55.4464V49.0307C72.7076 48.9162 72.6934 48.802 72.6656 48.6907L71.2667 43.0948C71.1107 42.4725 70.5513 42.0358 69.9096 42.0358H63.494L57.5609 36.1028L59.8706 30.3292L63.1092 27.9062C66.7564 30.4911 69.7698 33.8695 71.9228 37.7871L71.9773 37.8851C72.4054 38.676 72.7977 39.4883 73.1539 40.3221C73.1874 40.4032 73.2182 40.4844 73.2518 40.5641C73.934 42.2051 74.4651 43.9049 74.8382 45.6424C74.8732 45.8047 74.9096 45.9669 74.9418 46.1306C75.106 46.9569 75.2347 47.7963 75.3279 48.6488C75.3447 48.8083 75.3559 48.9705 75.3712 49.1314C75.4538 50.024 75.5111 50.9235 75.5111 51.8356C75.5106 52.8168 75.4606 53.7973 75.3615 54.7735Z" fill="#F36E62"/>
</g>
<defs>
<clipPath id="clip0_1_282">
<rect width="84" height="84" fill="white"/>
</clipPath>
</defs>
</svg>
