<svg width="84" height="84" viewBox="0 0 84 84" fill="none" xmlns="http://www.w3.org/2000/svg">
<path d="M42 10.8281C30.2397 10.8281 20.6719 20.3958 20.6719 32.1562C20.6719 43.9167 30.2397 53.4844 42 53.4844C53.7603 53.4844 63.3281 43.9167 63.3281 32.1562C63.3281 20.3958 53.7603 10.8281 42 10.8281ZM42 50.2031C32.049 50.2031 23.9531 42.1073 23.9531 32.1562C23.9531 22.2052 32.049 14.1094 42 14.1094C51.951 14.1094 60.0469 22.2052 60.0469 32.1562C60.0469 42.1073 51.951 50.2031 42 50.2031Z" fill="#F36E62"/>
<path d="M54.3047 35.4375H53.3674C52.6526 30.4123 48.6757 26.4269 43.6406 25.7107V22.3125C43.6406 21.4065 42.9061 20.6719 42 20.6719C41.0939 20.6719 40.3594 21.4065 40.3594 22.3125V25.7129C35.3376 26.4346 31.3564 30.4159 30.6347 35.4375H29.6953C28.7892 35.4375 28.0547 36.1722 28.0547 37.0781C28.0547 37.9841 28.7892 38.7188 29.6953 38.7188H54.3047C55.2108 38.7188 55.9453 37.9841 55.9453 37.0781C55.9453 36.1722 55.2108 35.4375 54.3047 35.4375ZM42 28.875C46.0112 28.875 49.2909 31.7326 50.0394 35.4375H33.9621C34.7242 31.6977 38.0385 28.875 42 28.875Z" fill="#F36E62"/>
<path d="M74.1562 32.1562C74.1562 14.4252 59.7311 0 42 0C24.2689 0 9.84375 14.4252 9.84375 32.1562C9.84375 46.9299 19.7974 59.1424 33.0414 63.0056L34.8223 66.268C25.5135 67.1088 15.75 69.7794 15.75 74.9766C15.75 80.9776 28.4532 83.089 34.471 83.6555C35.3696 83.7408 36.173 83.0808 36.2583 82.1758C36.3433 81.2736 35.6808 80.4735 34.7786 80.3885C23.6504 79.3411 19.0312 76.3468 19.0312 74.9766C19.0312 73.4678 24.3334 70.2553 36.5433 69.4207L40.5599 76.7785C40.8475 77.3051 41.3997 77.6329 41.9998 77.6329C42.6 77.6329 43.1522 77.3051 43.4398 76.7785L47.4564 69.4207C59.6666 70.2553 64.9688 73.4678 64.9688 74.9766C64.9688 76.3468 60.3496 79.3411 49.2214 80.3887C48.3192 80.4736 47.6569 81.2738 47.7417 82.1759C47.8272 83.0835 48.6329 83.7406 49.529 83.6556C55.5427 83.0893 68.25 80.979 68.25 74.9766C68.25 69.7794 58.4865 67.1088 49.1777 66.268L50.9586 63.0056C64.1755 59.1503 74.1562 46.9578 74.1562 32.1562ZM48.4104 60.8258L42 72.5681C41.2988 71.2838 36.9167 63.2568 35.5896 60.8258C35.3743 60.4318 35.0072 60.143 34.5732 60.027C22.3597 56.763 13.125 45.625 13.125 32.1562C13.125 16.2345 26.0782 3.28125 42 3.28125C57.9218 3.28125 70.875 16.2345 70.875 32.1562C70.875 45.5907 61.674 56.754 49.4268 60.027C48.993 60.143 48.6257 60.4318 48.4104 60.8258Z" fill="#F36E62"/>
<path d="M42 84C42.9061 84 43.6406 83.2655 43.6406 82.3594C43.6406 81.4533 42.9061 80.7188 42 80.7188C41.0939 80.7188 40.3594 81.4533 40.3594 82.3594C40.3594 83.2655 41.0939 84 42 84Z" fill="#F36E62"/>
</svg>
