<svg width="84" height="84" viewBox="0 0 84 84" fill="none" xmlns="http://www.w3.org/2000/svg">
<path d="M76.2224 51.3333H21.778V46.6667C21.778 44.6414 20.4737 42.9308 18.6669 42.2866V15.5556C18.6669 14.6957 17.9704 14 17.1113 14C16.2523 14 15.5558 14.6957 15.5558 15.5556V42.2866C13.749 42.9308 12.4447 44.6414 12.4447 46.6667V51.3333H7.778C5.20464 51.3333 3.11133 53.4266 3.11133 56V68.4444C3.11133 71.0178 5.20464 73.1111 7.778 73.1111H9.33355V77.7778C9.33355 78.6376 10.0301 79.3333 10.8891 79.3333H20.2224C21.0815 79.3333 21.778 78.6376 21.778 77.7778V73.1111H62.2224V77.7778C62.2224 78.6376 62.9189 79.3333 63.778 79.3333H73.1113C73.9704 79.3333 74.6669 78.6376 74.6669 77.7778V73.1111H76.2224C78.7958 73.1111 80.8891 71.0178 80.8891 68.4444V56C80.8891 53.4266 78.7958 51.3333 76.2224 51.3333ZM15.5558 46.6667C15.5558 45.8084 16.2538 45.1111 17.1113 45.1111C17.9689 45.1111 18.6669 45.8084 18.6669 46.6667V51.3333H15.5558V46.6667ZM18.6669 76.2222H12.4447V73.1111H18.6669V76.2222ZM71.5558 76.2222H65.3335V73.1111H71.5558V76.2222ZM77.778 68.4444C77.778 69.3027 77.08 70 76.2224 70H73.1113H63.778H20.2224H10.8891H7.778C6.92046 70 6.22244 69.3027 6.22244 68.4444V56C6.22244 55.1417 6.92046 54.4444 7.778 54.4444H14.0002H20.2224H76.2224C77.08 54.4444 77.778 55.1417 77.778 56V68.4444ZM14.0002 57.5555C11.4269 57.5555 9.33355 59.6489 9.33355 62.2222C9.33355 64.7956 11.4269 66.8889 14.0002 66.8889C16.5736 66.8889 18.6669 64.7956 18.6669 62.2222C18.6669 59.6489 16.5736 57.5555 14.0002 57.5555ZM14.0002 63.7778C13.1427 63.7778 12.4447 63.0805 12.4447 62.2222C12.4447 61.3639 13.1427 60.6667 14.0002 60.6667C14.8577 60.6667 15.5558 61.3639 15.5558 62.2222C15.5558 63.0805 14.8577 63.7778 14.0002 63.7778ZM26.4447 57.5555C23.8713 57.5555 21.778 59.6489 21.778 62.2222C21.778 64.7956 23.8713 66.8889 26.4447 66.8889C29.018 66.8889 31.1113 64.7956 31.1113 62.2222C31.1113 59.6489 29.018 57.5555 26.4447 57.5555ZM26.4447 63.7778C25.5871 63.7778 24.8891 63.0805 24.8891 62.2222C24.8891 61.3639 25.5871 60.6667 26.4447 60.6667C27.3022 60.6667 28.0002 61.3639 28.0002 62.2222C28.0002 63.0805 27.3022 63.7778 26.4447 63.7778ZM38.8891 57.5555C36.3158 57.5555 34.2224 59.6489 34.2224 62.2222C34.2224 64.7956 36.3158 66.8889 38.8891 66.8889C41.4625 66.8889 43.5558 64.7956 43.5558 62.2222C43.5558 59.6489 41.4625 57.5555 38.8891 57.5555ZM38.8891 63.7778C38.0316 63.7778 37.3335 63.0805 37.3335 62.2222C37.3335 61.3639 38.0316 60.6667 38.8891 60.6667C39.7466 60.6667 40.4447 61.3639 40.4447 62.2222C40.4447 63.0805 39.7466 63.7778 38.8891 63.7778ZM51.3335 57.5555C48.7602 57.5555 46.6669 59.6489 46.6669 62.2222C46.6669 64.7956 48.7602 66.8889 51.3335 66.8889C53.9069 66.8889 56.0002 64.7956 56.0002 62.2222C56.0002 59.6489 53.9069 57.5555 51.3335 57.5555ZM51.3335 63.7778C50.476 63.7778 49.778 63.0805 49.778 62.2222C49.778 61.3639 50.476 60.6667 51.3335 60.6667C52.1911 60.6667 52.8891 61.3639 52.8891 62.2222C52.8891 63.0805 52.1911 63.7778 51.3335 63.7778ZM74.6669 59.1111C74.6669 59.9709 73.9704 60.6667 73.1113 60.6667H60.6669C59.8078 60.6667 59.1113 59.9709 59.1113 59.1111C59.1113 58.2513 59.8078 57.5555 60.6669 57.5555H73.1113C73.9704 57.5555 74.6669 58.2513 74.6669 59.1111ZM62.2224 65.3333C62.2224 66.1931 61.5259 66.8889 60.6669 66.8889C59.8078 66.8889 59.1113 66.1931 59.1113 65.3333C59.1113 64.4735 59.8078 63.7778 60.6669 63.7778C61.5259 63.7778 62.2224 64.4735 62.2224 65.3333ZM13.8164 11.7168C12.9315 12.6131 12.4447 13.7888 12.4447 15.0269C12.4447 16.2635 12.9323 17.4392 13.8172 18.337C14.4202 18.9492 14.4127 19.9336 13.8005 20.5367C13.4974 20.8359 13.1032 20.9848 12.709 20.9848C12.3072 20.9848 11.9054 20.8299 11.6008 20.5215C10.1387 19.0373 9.33355 17.0853 9.33355 15.0269C9.33355 12.9655 10.1387 11.015 11.6016 9.53233C12.2062 8.92166 13.1898 8.91406 13.8012 9.51714C14.4134 10.1202 14.4195 11.1061 13.8164 11.7168ZM20.4055 18.337C21.2904 17.4392 21.778 16.2635 21.778 15.0269C21.778 13.7888 21.2911 12.6131 20.4062 11.7168C19.8032 11.1061 19.8092 10.1202 20.4214 9.51714C21.0329 8.91406 22.0173 8.92166 22.6211 9.53233C24.084 11.015 24.8891 12.9655 24.8891 15.0269C24.8891 17.0853 24.084 19.0373 22.6219 20.5215C22.3173 20.8299 21.9155 20.9848 21.5137 20.9848C21.1195 20.9848 20.7253 20.8359 20.4222 20.5367C19.81 19.9336 19.8024 18.9492 20.4055 18.337ZM28.0002 15.0269C28.0002 12.127 26.8677 9.38802 24.8124 7.31901C24.207 6.70833 24.2101 5.72396 24.82 5.11784C25.4291 4.51324 26.415 4.51779 27.0196 5.12543C29.6583 7.78385 31.1113 11.299 31.1113 15.0269C31.1113 18.7548 29.6583 22.27 27.0196 24.9284C26.7158 25.2337 26.3163 25.3871 25.916 25.3871C25.5195 25.3871 25.123 25.2368 24.82 24.936C24.2101 24.3299 24.207 23.3455 24.8124 22.7348C26.8677 20.6658 28.0002 17.9269 28.0002 15.0269ZM9.40267 5.11784C10.0126 5.72396 10.0156 6.70833 9.41026 7.31901C7.35493 9.38802 6.22244 12.127 6.22244 15.0269C6.22244 17.9269 7.35493 20.6658 9.41026 22.7348C10.0156 23.3455 10.0126 24.3299 9.40267 24.936C9.09961 25.2368 8.70312 25.3871 8.30664 25.3871C7.90636 25.3871 7.50684 25.2337 7.20302 24.9284C4.56434 22.27 3.11133 18.7548 3.11133 15.0269C3.11133 11.299 4.56434 7.78385 7.20302 5.12543C7.80686 4.51627 8.79275 4.51172 9.40267 5.11784Z" fill="#F36E62"/>
</svg>
