<svg width="84" height="84" viewBox="0 0 84 84" fill="none" xmlns="http://www.w3.org/2000/svg">
<g clip-path="url(#clip0_1_105)">
<path d="M35.6016 59.8829C36.5071 59.8829 37.2422 59.1478 37.2422 58.2423C37.2422 57.3367 36.5071 56.6016 35.6016 56.6016C34.696 56.6016 33.9609 57.3367 33.9609 58.2423C33.9609 59.1478 34.696 59.8829 35.6016 59.8829Z" fill="#F36E62"/>
<path d="M0.644715 63.6679L20.3322 83.3554C20.9731 83.9963 22.0113 83.9963 22.6522 83.3554L33.4803 72.5273C34.1212 71.8864 34.1212 70.8482 33.4803 70.2073L32.9997 69.7267H56.6491C58.7261 69.7267 60.7083 68.948 62.2368 67.5291L82.1403 48.8753C84.0456 47.1059 84.6769 44.295 83.7104 41.8815C83.0119 40.1345 81.5853 38.7976 79.7973 38.2138C78.0086 37.6287 76.0687 37.8658 74.4729 38.863C74.4627 38.8694 70.0541 41.7623 70.0541 41.7623C70.024 32.8689 64.649 23.3853 57.2502 19.1159C57.6725 18.6307 58.0045 18.0565 58.216 17.4137C59.0626 14.8381 57.6552 12.0503 55.0757 11.1986C54.995 11.1716 54.9142 11.1479 54.8335 11.1229L59.0568 3.53632C59.2997 3.09989 59.3311 2.5763 59.1408 2.11487C58.9511 1.6528 58.5614 1.30225 58.0814 1.16318C55.0533 0.282624 51.906 -0.164062 48.7266 -0.164062C45.5479 -0.164062 42.4 0.282624 39.3718 1.16254C38.8918 1.30225 38.5022 1.65216 38.3119 2.11423C38.1222 2.5763 38.1529 3.09989 38.3964 3.53632L42.6198 11.1229C42.5377 11.1486 42.4557 11.1729 42.3737 11.1998C39.798 12.0503 38.3913 14.8374 39.2379 17.415C39.4494 18.0565 39.7839 18.6288 40.2075 19.1146C32.6985 23.4475 27.3985 33.0285 27.3985 41.836C27.3985 42.0763 27.4042 42.3134 27.4119 42.5486C24.4735 43.3504 21.7415 44.8109 19.444 46.8226L14.458 51.185L13.7928 50.5198C13.1519 49.8789 12.1137 49.8789 11.4729 50.5198L0.644715 61.3479C0.00384498 61.9888 0.00384498 63.027 0.644715 63.6679ZM42.3006 3.80356C44.4027 3.34726 46.556 3.11719 48.7266 3.11719C50.8973 3.11719 53.0506 3.34726 55.1533 3.80356L51.4971 10.3706C49.654 10.1136 47.798 10.1136 45.9568 10.3706L42.3006 3.80356ZM43.3978 14.317C46.7643 13.2154 50.4345 13.1321 54.051 14.3158C54.9117 14.5997 55.3814 15.5302 55.0988 16.389C54.886 17.0356 54.3092 17.4746 53.6408 17.5137C50.4057 16.4851 47.0456 16.4832 43.8118 17.5105C43.8118 17.5105 43.8118 17.5105 43.8112 17.5105C43.137 17.4682 42.5647 17.0273 42.3545 16.3896C42.0718 15.5296 42.5416 14.599 43.3978 14.317ZM44.3053 20.8058C47.1501 19.7811 50.0975 19.7567 52.9493 20.7366C60.5718 23.3578 66.7735 32.8228 66.7735 41.836C66.7735 42.5999 66.7255 43.3279 66.6306 44.0085L58.7447 49.1823C57.5239 47.6698 55.6737 46.7579 53.6485 46.7579H50.3673V44.8353C52.277 44.1579 53.6485 42.3339 53.6485 40.1954C53.6485 37.4813 51.4407 35.2735 48.7266 35.2735C47.8224 35.2735 47.086 34.5378 47.086 33.6329C47.086 32.7279 47.8224 31.9922 48.7266 31.9922C49.3079 31.9922 49.9212 32.289 50.5012 32.8497C51.1523 33.4797 52.1912 33.4624 52.8211 32.8119C53.4511 32.1608 53.4338 31.1219 52.7827 30.492C51.9502 29.6857 51.1171 29.2301 50.3673 28.9814V27.0703C50.3673 26.1642 49.6328 25.4297 48.7266 25.4297C47.8204 25.4297 47.086 26.1642 47.086 27.0703V28.993C45.1769 29.6704 43.8047 31.4943 43.8047 33.6329C43.8047 36.3469 46.0125 38.5547 48.7266 38.5547C49.6315 38.5547 50.3673 39.2905 50.3673 40.1954C50.3673 41.1003 49.6315 41.836 48.7266 41.836C48.0255 41.836 47.2693 41.3951 46.5964 40.5946C46.0132 39.9012 44.9782 39.8115 44.2848 40.3947C43.5913 40.9779 43.5016 42.0129 44.0848 42.7063C44.9615 43.7496 45.9933 44.4764 47.086 44.843V46.7579H46.54C45.7338 46.7579 45.3717 46.2324 44.8039 45.8651C41.3374 43.2671 37.0436 41.836 32.7126 41.836C32.0352 41.836 31.3565 41.8712 30.681 41.9398C30.681 41.9052 30.6797 41.8712 30.6797 41.836C30.6797 32.949 36.7923 23.5154 44.3053 20.8058ZM21.605 49.2912C24.6876 46.5919 28.6488 45.1172 32.7126 45.1172C36.3386 45.1172 39.9333 46.315 42.8338 48.4895C43.2523 48.7343 44.4174 50.0391 46.5393 50.0391H53.6485C55.516 50.0391 56.9298 51.5573 56.9298 53.3204C56.9298 55.1296 55.4577 56.6016 53.6485 56.6016H42.1641C41.2579 56.6016 40.5235 57.3361 40.5235 58.2423C40.5235 59.1485 41.2579 59.8829 42.1641 59.8829H53.6485C57.2669 59.8829 60.211 56.9387 60.211 53.3204C60.211 52.9442 60.1777 52.5731 60.1149 52.2078L76.2257 41.6373C76.9922 41.1637 77.9221 41.0528 78.7783 41.3323C79.6396 41.6143 80.3273 42.2583 80.6637 43.1004C81.1373 44.2822 80.84 45.6056 79.9017 46.4765L59.9989 65.1297C59.085 65.9782 57.8956 66.4454 56.6491 66.4454H29.7184L16.7837 53.5101L21.605 49.2912ZM12.6328 53.9997L30.0004 71.3673L21.4922 79.8755L4.12464 62.5079L12.6328 53.9997Z" fill="#F36E62"/>
</g>
<defs>
<clipPath id="clip0_1_105">
<rect width="84" height="84" fill="white"/>
</clipPath>
</defs>
</svg>
