<svg width="84" height="84" viewBox="0 0 84 84" fill="none" xmlns="http://www.w3.org/2000/svg">
<g clip-path="url(#clip0_1_309)">
<path d="M83.8038 62.3098C83.5641 61.9234 83.1424 61.6875 82.6874 61.6875H69.0206C70.1194 60.6152 70.954 59.2709 71.4083 57.75H72.1874C75.8057 57.75 78.7499 54.8058 78.7499 51.1875V48.5625C78.7499 46.3912 76.9836 44.625 74.8124 44.625H73.182L73.4896 42.1628C73.537 41.7891 73.4205 41.4136 73.1718 41.1316C72.9219 40.8491 72.5642 40.6875 72.1874 40.6875H51.4946C52.2611 39.7271 52.4999 38.8045 52.4999 38.0625C52.4999 32.9477 42.3562 30.1875 32.8124 30.1875C23.2685 30.1875 13.1249 32.9477 13.1249 38.0625C13.1249 39.3879 13.8311 41.2688 17.0624 42.9408V51.1875H16.4868C15.2666 51.1875 14.1348 51.7393 13.3837 52.7019C12.9313 53.2803 12.6809 53.9596 12.5983 54.664L8.65148 55.7902C6.59558 56.3631 5.38821 58.4459 5.90599 60.5358L6.19409 61.6874H1.31238C0.857332 61.6874 0.435626 61.9232 0.195963 62.3096C-0.0436991 62.6967 -0.0654866 63.1799 0.138345 63.5868L1.67515 66.6604C2.56975 68.4504 4.36932 69.5622 6.37141 69.5622H77.6283C79.6304 69.5622 81.43 68.4503 82.3246 66.6604L83.8614 63.5868C84.0652 63.1798 84.0435 62.6968 83.8038 62.3098ZM74.8124 47.25C75.5366 47.25 76.1249 47.8389 76.1249 48.5625V51.1875C76.1249 53.3588 74.3586 55.125 72.1874 55.125H71.8696L72.8537 47.25H74.8124ZM69.1227 55.9389C68.7125 59.2163 65.9119 61.6875 62.6102 61.6875H52.8896C49.5878 61.6875 46.7872 59.2163 46.3771 55.9389L44.7993 43.3125H70.7007L69.1227 55.9389ZM18.9158 40.922C16.933 40.0261 15.7499 38.9571 15.7499 38.0625C15.7499 35.9219 22.397 32.8125 32.8124 32.8125C43.2277 32.8125 49.8749 35.9219 49.8749 38.0625C49.8749 38.8822 48.8715 39.8525 47.1883 40.6875H43.3124C42.9356 40.6875 42.5779 40.8489 42.328 41.1316C42.0793 41.4136 41.9627 41.7892 42.0101 42.1628L43.7725 56.2644C44.0392 58.3955 45.0337 60.2767 46.4793 61.6874H38.4309L38.7199 60.5325C39.2365 58.4459 38.029 56.363 35.9809 55.7927L32.0264 54.664C31.9439 53.9596 31.6935 53.2802 31.241 52.7017C30.4899 51.7391 29.3581 51.1874 28.1379 51.1874H19.6874V42.1177C19.6874 41.6018 19.3848 41.1341 18.9158 40.922ZM31.6554 57.2877L35.2682 58.3191C35.9475 58.5081 36.3448 59.2035 36.1732 59.8988L35.7259 61.6875H30.5555L31.6554 57.2877ZM15.4525 54.3176C15.7024 53.9965 16.0805 53.8125 16.4868 53.8125H28.1379C28.5443 53.8125 28.9224 53.9964 29.1723 54.3176C29.4235 54.6379 29.5107 55.0487 29.412 55.4429L27.8495 61.6875H16.7752L15.2128 55.4429C15.1141 55.0487 15.2013 54.6379 15.4525 54.3176ZM8.4529 59.9021C8.27991 59.2036 8.67721 58.5082 9.36417 58.3166L12.9691 57.2877L14.0692 61.6876H8.89889L8.4529 59.9021ZM79.9764 65.4867C79.5291 66.3819 78.6293 66.9376 77.6282 66.9376H6.37141C5.37036 66.9376 4.47064 66.382 4.02321 65.4867L3.43613 64.3126H80.5635L79.9764 65.4867Z" fill="#F36E62"/>
<path d="M49.875 26.25H68.25C68.9742 26.25 69.5625 26.8389 69.5625 27.5625C69.5625 28.2861 68.9742 28.875 68.25 28.875H60.375C58.2037 28.875 56.4375 30.6412 56.4375 32.8125V35.4375C56.4375 36.1623 57.0246 36.75 57.75 36.75C58.4754 36.75 59.0625 36.1623 59.0625 35.4375V32.8125C59.0625 32.0889 59.6508 31.5 60.375 31.5H68.25C70.4213 31.5 72.1875 29.7338 72.1875 27.5625C72.1875 25.3912 70.4213 23.625 68.25 23.625H49.875C49.1508 23.625 48.5625 23.0361 48.5625 22.3125C48.5625 21.5889 49.1508 21 49.875 21H63C65.1713 21 66.9375 19.2338 66.9375 17.0625V15.75C66.9375 15.0252 66.3504 14.4375 65.625 14.4375C64.8996 14.4375 64.3125 15.0252 64.3125 15.75V17.0625C64.3125 17.7861 63.7242 18.375 63 18.375H49.875C47.7037 18.375 45.9375 20.1412 45.9375 22.3125C45.9375 24.4838 47.7037 26.25 49.875 26.25Z" fill="#F36E62"/>
<path d="M24.9375 40.6875C25.6624 40.6875 26.25 40.0999 26.25 39.375C26.25 38.6501 25.6624 38.0625 24.9375 38.0625C24.2126 38.0625 23.625 38.6501 23.625 39.375C23.625 40.0999 24.2126 40.6875 24.9375 40.6875Z" fill="#F36E62"/>
<path d="M30.1875 43.3125C30.9124 43.3125 31.5 42.7249 31.5 42C31.5 41.2751 30.9124 40.6875 30.1875 40.6875C29.4626 40.6875 28.875 41.2751 28.875 42C28.875 42.7249 29.4626 43.3125 30.1875 43.3125Z" fill="#F36E62"/>
<path d="M26.25 45.9375C26.9749 45.9375 27.5625 45.3499 27.5625 44.625C27.5625 43.9001 26.9749 43.3125 26.25 43.3125C25.5251 43.3125 24.9375 43.9001 24.9375 44.625C24.9375 45.3499 25.5251 45.9375 26.25 45.9375Z" fill="#F36E62"/>
</g>
<defs>
<clipPath id="clip0_1_309">
<rect width="84" height="84" fill="white"/>
</clipPath>
</defs>
</svg>
