<svg width="84" height="84" viewBox="0 0 84 84" fill="none" xmlns="http://www.w3.org/2000/svg">
<g clip-path="url(#clip0_1_112)">
<path d="M83.515 57.5361C82.8906 56.4842 81.7875 55.8562 80.5642 55.8562H78.895C78.0858 38.5635 64.6824 24.5098 47.6711 22.68C48.3459 21.6299 48.7393 20.3825 48.7393 19.0442C48.7393 15.3242 45.7129 12.2978 41.9929 12.2978C38.2729 12.2978 35.2465 15.3242 35.2465 19.044C35.2465 20.3823 35.6399 21.6298 36.3147 22.6799C19.3034 24.5098 5.89997 38.5635 5.0908 55.8562H3.42161C0.874482 55.8562 -0.819736 58.6785 0.409334 60.931L2.57019 64.8915C4.80794 68.993 9.10065 71.5409 13.773 71.5409H56.7663C58.894 71.5409 58.8971 68.2267 56.7663 68.2267H13.773C10.314 68.2267 7.13616 66.3405 5.47956 63.304L3.3187 59.3435C3.28722 59.2466 3.32152 59.1889 3.42177 59.1702H80.5644C80.6645 59.1889 80.6988 59.2467 80.6673 59.3435L78.5064 63.304C76.8496 66.3405 73.6718 68.2267 70.2128 68.2267C68.0851 68.2267 68.0819 71.5409 70.2128 71.5409C74.8852 71.5409 79.1779 68.993 81.4156 64.8915L83.5765 60.931C84.1623 59.8572 84.1394 58.5881 83.515 57.5361ZM41.9929 15.6119C43.8853 15.6119 45.4251 17.1516 45.4251 19.044C45.4251 20.9366 43.8853 22.4762 41.9929 22.4762C40.1005 22.4762 38.5607 20.9364 38.5607 19.044C38.5607 17.1516 40.1003 15.6119 41.9929 15.6119ZM8.40749 55.856C9.27299 39.1319 23.1517 25.7904 40.0874 25.7904H43.8982C60.834 25.7904 74.7127 39.1319 75.5782 55.856H8.40749Z" fill="#F36E62"/>
<path d="M64.933 69.4152C64.5855 68.5817 63.6043 68.1729 62.7688 68.5187C61.9341 68.8642 61.5295 69.8505 61.874 70.6829C62.2195 71.5176 63.2017 71.924 64.0365 71.5794C64.8737 71.2337 65.2752 70.2509 64.933 69.4152Z" fill="#F36E62"/>
</g>
<defs>
<clipPath id="clip0_1_112">
<rect width="84" height="84" fill="white"/>
</clipPath>
</defs>
</svg>
