<svg width="84" height="84" viewBox="0 0 84 84" fill="none" xmlns="http://www.w3.org/2000/svg">
<g clip-path="url(#clip0_1_338)">
<path d="M18.1998 40.6C13.5609 40.6 9.7998 44.3611 9.7998 49C9.7998 53.6395 13.5609 57.4 18.1998 57.4C22.8386 57.4 26.5998 53.6395 26.5998 49C26.595 44.3625 22.8373 40.6048 18.1998 40.6ZM18.1998 54.6C15.1072 54.6 12.5998 52.0926 12.5998 49C12.5998 45.9074 15.1072 43.4 18.1998 43.4C21.2924 43.4 23.7998 45.9074 23.7998 49C23.7998 52.0926 21.2924 54.6 18.1998 54.6Z" fill="#F36E62"/>
<path d="M65.8 21.0001V16.8001H68.6C70.0533 16.8001 72.8 15.6298 72.8 11.2001C72.8 6.77041 70.0533 5.6001 68.6 5.6001H64.4C63.6269 5.6001 63 6.22695 63 7.00009V21.0001C63 21.7732 63.6269 22.4001 64.4 22.4001C65.1731 22.4001 65.8 21.7732 65.8 21.0001ZM70 11.2001C70 13.7779 68.8003 13.985 68.6 14.0001H65.8V8.40009H68.561C68.8003 8.41581 70 8.62294 70 11.2001Z" fill="#F36E62"/>
<path d="M82.5998 81.1999H74.1998V44.8C74.1998 44.0269 73.573 43.4 72.7998 43.4H71.3998V28H74.1998C74.6681 28 75.1049 27.7662 75.3647 27.3773L83.7646 14.7773C84.0784 14.307 84.0784 13.6938 83.7646 13.2235L75.3647 0.623543C75.1049 0.233895 74.6681 0.000106812 74.1998 0.000106812H60.1999C59.7316 0.000106812 59.2948 0.233895 59.035 0.623543L50.635 13.2235C50.3213 13.6938 50.3213 14.307 50.635 14.7773L59.035 27.3773C59.2948 27.7662 59.7316 28 60.1999 28H62.9998V43.4H61.5998C60.8267 43.4 60.1999 44.0269 60.1999 44.8V81.1999H32.1999V71.3999H41.9999C42.773 71.3999 43.3999 70.7731 43.3999 69.9999V61.6C43.3999 60.8268 42.773 60.2 41.9999 60.2H40.5999V56C40.5999 55.2268 39.973 54.6 39.1999 54.6H36.3999V43.4C36.3924 39.0202 33.4817 35.1757 29.268 33.9794L28.6145 29.4H32.1999V32.2C32.1999 32.9732 32.8268 33.6 33.5999 33.6H39.1999C41.5193 33.6 43.3999 31.7195 43.3999 29.4V26.6C43.3999 24.2806 41.5193 22.4001 39.1999 22.4001H33.5999C32.8268 22.4001 32.1999 23.0269 32.1999 23.8V26.6H28.2153L26.2178 12.6144C25.5076 7.79921 21.3869 4.22402 16.5197 4.2001H1.4C0.626854 4.2001 0 4.82695 0 5.60009V69.9999C0 70.7731 0.626854 71.3999 1.4 71.3999H18.2V81.1999H1.4C0.626854 81.1999 0 81.8268 0 82.5999C0 83.373 0.626854 83.9999 1.4 83.9999H82.5998C83.3729 83.9999 83.9998 83.373 83.9998 82.5999C83.9998 81.8268 83.3729 81.1999 82.5998 81.1999ZM34.9999 25.2H39.1999C39.973 25.2 40.5999 25.8269 40.5999 26.6V29.4C40.5999 30.1732 39.973 30.8 39.1999 30.8H34.9999V25.2ZM53.4801 14.0001L60.9463 2.8001H73.4479L80.9195 14.0001L73.4533 25.2H60.9518L53.4801 14.0001ZM65.7998 28H68.5998V43.4H65.7998V28ZM62.9998 46.2H71.3998V50.4H62.9998V46.2ZM33.5999 43.4V56C33.5999 56.7731 34.2268 57.4 34.9999 57.4H37.7999V60.2H2.79999V36.4H26.5999C30.4643 36.4048 33.5951 39.5363 33.5999 43.4ZM16.5197 7.00009C19.9978 7.01581 22.9427 9.56971 23.4499 13.0102L26.386 33.6H2.79999V7.00009H16.5197ZM2.79999 63H40.5999V68.5999H20.9999V67.1999C20.9999 66.4268 20.3731 65.7999 19.6 65.7999C18.8268 65.7999 18.2 66.4268 18.2 67.1999V68.5999H14V67.1999C14 66.4268 13.3731 65.7999 12.6 65.7999C11.8268 65.7999 11.2 66.4268 11.2 67.1999V68.5999H8.39998V67.1999C8.39998 66.4268 7.77313 65.7999 6.99998 65.7999C6.22684 65.7999 5.59999 66.4268 5.59999 67.1999V68.5999H2.79999V63ZM20.9999 81.1999V71.3999H23.7999V76.9999C23.7999 77.7731 24.4268 78.3999 25.1999 78.3999C25.9731 78.3999 26.5999 77.7731 26.5999 76.9999V71.3999H29.3999V81.1999H20.9999ZM62.9998 81.1999V53.2H71.3998V81.1999H62.9998Z" fill="#F36E62"/>
<path d="M17.2099 24.7899C17.7595 25.3203 18.6325 25.3128 19.1725 24.7728C19.7125 24.2328 19.7201 23.3598 19.1896 22.8102L10.7896 14.4102C10.24 13.8798 9.36707 13.8873 8.82703 14.4273C8.28699 14.9673 8.27947 15.8403 8.80994 16.3899L17.2099 24.7899Z" fill="#F36E62"/>
<path d="M11.6101 28.9899C12.1597 29.5203 13.0327 29.5128 13.5727 28.9728C14.1128 28.4327 14.1203 27.5598 13.5898 27.0102L7.98982 21.4102C7.44021 20.8797 6.56726 20.8873 6.02722 21.4273C5.48719 21.9673 5.47967 22.8403 6.01013 23.3899L11.6101 28.9899Z" fill="#F36E62"/>
</g>
<defs>
<clipPath id="clip0_1_338">
<rect width="84" height="84" fill="white"/>
</clipPath>
</defs>
</svg>
