<svg width="20" height="20" viewBox="0 0 20 20" fill="none" xmlns="http://www.w3.org/2000/svg">
<g clip-path="url(#clip0_1_261)">
<path d="M17.9538 5.4137C18.3346 6.8987 18.3346 9.9987 18.3346 9.9987C18.3346 9.9987 18.3346 13.0987 17.9538 14.5837C17.7421 15.4045 17.123 16.0504 16.3388 16.2687C14.9146 16.6654 10.0013 16.6654 10.0013 16.6654C10.0013 16.6654 5.09047 16.6654 3.6638 16.2687C2.8763 16.047 2.25797 15.402 2.0488 14.5837C1.66797 13.0987 1.66797 9.9987 1.66797 9.9987C1.66797 9.9987 1.66797 6.8987 2.0488 5.4137C2.26047 4.59286 2.87964 3.94703 3.6638 3.7287C5.09047 3.33203 10.0013 3.33203 10.0013 3.33203C10.0013 3.33203 14.9146 3.33203 16.3388 3.7287C17.1263 3.95036 17.7446 4.59536 17.9538 5.4137ZM8.33464 12.9154L13.3346 9.9987L8.33464 7.08203V12.9154Z" fill="white"/>
</g>
<defs>
<clipPath id="clip0_1_261">
<rect width="20" height="20" fill="white"/>
</clipPath>
</defs>
</svg>
